M48
;Layer_Color=9474304
;FILE_FORMAT=2:4
INCH,TZ
;TYPE=PLATED
T1F00S00C0.0300
T2F00S00C0.0400
;TYPE=NON_PLATED
T3F00S00C0.0945
%
T01
X5000Y700
X13800
X13000Y4150
X11650Y3300
X20450Y1650
X22800Y12950
X21450Y15400
X21672Y19675
X23900Y18250
X26850Y18550
X24956Y21068
X34175Y18550
X20667Y18217
X19600Y17100
X18300Y16800
X16850Y18050
X15300Y16850
X13650Y18850
X11000Y18350
X10650Y15950
X11800Y15550
Y14550
X11589Y11374
X6800Y11200
X7950Y13750
X8350Y16250
X20650Y15550
X19925Y14375
X20200Y8500
X4750Y11200
X4850Y12950
X4700Y16250
X1900Y21700
T02
X2063Y4266
X6000Y5250
X6984Y3282
X6000Y2297
X9500Y1421
Y3233
Y5044
X12500
Y3233
Y1421
X15100Y1300
Y2300
Y3300
Y4300
Y5300
X18100
Y4300
Y3300
Y2300
Y1300
X21000Y2650
Y4560
X24000
Y2650
X28100Y3687
X29100
X30100
X31100
X32100
X33100
X34100
X35100
X37300Y19600
X38300
X39300
X36300
X35300
X33150Y19497
Y21228
X30150
Y19497
Y17767
X33150
X33350Y12600
X31550
X29750
X27950
X26150
X24000Y12200
Y10290
Y8380
Y6470
X28100Y6813
X29100
X30100
X31100
X32100
X33100
X34100
X35100
X35150Y9600
X33350
X31550
X29750
X27950
X26150
X36950
Y12600
X35150
X26850Y20700
X23724
X19700Y19550
X18700
X16650
X15650
X11900Y20036
X9450
X7000
Y17036
X9450
X11900
X12550Y14100
X12500Y12289
Y10478
Y8666
Y6855
X9500
Y8666
Y10478
Y12289
X9550Y14100
X6810Y14650
X6000Y8203
X6984Y7218
X15100Y7300
Y8300
Y9300
Y10300
Y11300
Y12300
Y13300
Y14300
X18100
Y13300
Y12300
Y11300
Y10300
Y9300
Y8300
Y7300
Y6300
X15100
X21000Y6470
Y8380
Y10290
Y12200
X5590Y14650
X3150Y15100
X1150
Y12800
X3150
Y10550
X1150
X2063Y6234
X1250Y18100
Y19100
X4050Y19104
Y18100
Y20108
X4555Y22600
X2827
X1100
Y25600
X2827
X4555
X5060Y27800
X2500
X1500
X6060
X6282Y25600
X8009
X9736
X11464
X13191
X14918
X16645
X18373
X20100
X20300Y27800
X19300
X16740
X15740
X13180
X12180
X9620
X8620
X8009Y22600
X6282
X9736
X11464
X13191
X14918
X16645
X18373
X20100
X23724Y22700
Y23700
Y24700
Y25700
Y26700
Y27700
X26850
Y26700
Y25700
Y24700
Y23700
Y22700
Y21700
X23724
X30150Y22958
Y24689
Y26419
Y28150
X33150
Y26419
Y24689
Y22958
X35300Y23900
X36300
Y25900
X35300
Y21600
X36300
X37300
X38300
X39300
Y23900
X38300
X37300
Y25900
X38300
X39300
T03
X4031Y2297
Y8203
M30
