G04*
G04 #@! TF.GenerationSoftware,Altium Limited,Altium Designer,22.1.2 (22)*
G04*
G04 Layer_Physical_Order=2*
G04 Layer_Color=16711680*
%FSLAX25Y25*%
%MOIN*%
G70*
G04*
G04 #@! TF.SameCoordinates,8F418984-8156-4F93-B3CA-C30CAEC08A5D*
G04*
G04*
G04 #@! TF.FilePolarity,Positive*
G04*
G01*
G75*
%ADD22C,0.03000*%
%ADD23R,0.06000X0.06000*%
%ADD24C,0.06000*%
%ADD25C,0.09449*%
%ADD26R,0.06000X0.06000*%
%ADD27R,0.05500X0.05500*%
%ADD28R,0.05500X0.05500*%
%ADD29C,0.04000*%
D22*
X346500Y198604D02*
Y200450D01*
X336369Y188472D02*
X346500Y198604D01*
X328808Y188472D02*
X336369D01*
X338000Y174974D02*
Y181489D01*
X341745Y185234D02*
Y185505D01*
X338000Y181489D02*
X341745Y185234D01*
X249420Y204580D02*
Y210543D01*
X249557Y210679D01*
X249420Y204580D02*
X268500Y185500D01*
X399453Y188953D02*
Y193260D01*
X399500Y193308D02*
Y198692D01*
X399453Y198740D02*
X399500Y198692D01*
X331404Y159904D02*
X370404D01*
X393000Y216000D02*
X404500Y204500D01*
X372475Y154904D02*
X404500Y186929D01*
X370404Y159904D02*
X399453Y188953D01*
Y193260D02*
X399500Y193308D01*
X399453Y198740D02*
Y199547D01*
X404500Y186929D02*
Y204500D01*
X349904Y154904D02*
X372475D01*
X333026Y170000D02*
X338000Y174974D01*
X279500Y126000D02*
X323500Y170000D01*
X333026D01*
X328563Y188716D02*
X328808Y188472D01*
X324216Y188716D02*
X328563D01*
X363000Y215188D02*
Y216000D01*
X361500Y213688D02*
X363000Y215188D01*
X348550Y202500D02*
X351000D01*
X346500Y200450D02*
X348550Y202500D01*
X351000D02*
X361500Y213000D01*
Y213688D01*
X343500Y288500D02*
X373000Y259000D01*
X280000Y288500D02*
X343500D01*
X268500Y277000D02*
X280000Y288500D01*
X242965Y230468D02*
X243740Y229692D01*
Y224308D02*
Y229692D01*
X241207Y197000D02*
X242965Y198757D01*
Y220468D02*
Y223532D01*
X216855Y196749D02*
X217107Y197000D01*
X242965Y203532D02*
X243740Y204308D01*
X242965Y210468D02*
Y213532D01*
Y198757D02*
Y203532D01*
Y213532D02*
X243740Y214308D01*
X242965Y220468D02*
X243740Y219692D01*
X216720Y196749D02*
X216855D01*
X242965Y230468D02*
Y231276D01*
X217107Y197000D02*
X241207D01*
X242965Y223532D02*
X243740Y224308D01*
X242965Y210468D02*
X243740Y209692D01*
Y214308D02*
Y219692D01*
Y204308D02*
Y209692D01*
X260009Y45991D02*
X275630Y30370D01*
X285450D01*
X246829Y52100D02*
X273559Y25370D01*
X235600Y52100D02*
X246829D01*
X287521Y25370D02*
X288296Y26146D01*
X334500Y20370D02*
X351000Y36870D01*
X287500Y32420D02*
Y33370D01*
X273559Y25370D02*
X287521D01*
X271488Y20370D02*
X334500D01*
X210000Y26500D02*
X235600Y52100D01*
X240000Y45600D02*
X240574Y45026D01*
X288296Y26146D02*
X320276D01*
X246832Y45026D02*
X271488Y20370D01*
X287500Y33370D02*
X291000Y36870D01*
X260009Y45991D02*
Y53883D01*
X285450Y30370D02*
X287500Y32420D01*
X240574Y45026D02*
X246832D01*
X321000Y126000D02*
X349904Y154904D01*
X315500Y126000D02*
X321000D01*
X232259Y182172D02*
X232587Y182500D01*
X239000D01*
X240000Y102900D02*
Y122000D01*
X199250Y143650D02*
X240000Y102900D01*
X201000Y226000D02*
X220000Y207000D01*
X187974Y23574D02*
X210000Y45600D01*
X199250Y143650D02*
Y143750D01*
X242692Y90300D02*
X281000Y51992D01*
X206672Y182172D02*
X206844Y182000D01*
X206672Y182172D02*
X232259D01*
X228000Y129500D02*
Y152500D01*
X210000Y45600D02*
X237733Y73333D01*
X240560D01*
X220000Y207000D02*
X237240D01*
X210000Y64700D02*
X235600Y90300D01*
X201500Y179000D02*
X228000Y152500D01*
X240560Y73333D02*
X260009Y53883D01*
X235600Y90300D02*
X242692D01*
X195501Y50201D02*
X210000Y64700D01*
X237240Y237000D02*
X242965Y231276D01*
X237240Y237000D02*
Y247000D01*
Y257000D01*
X257240Y277000D02*
X268500D01*
X237240Y257000D02*
X257240Y277000D01*
X331500Y246889D02*
X370889D01*
X383000Y259000D01*
X268500Y267000D02*
X283000Y281500D01*
X301500D01*
X275694Y264194D02*
X301500D01*
X268500Y257000D02*
X275694Y264194D01*
X297500Y126000D02*
X331404Y159904D01*
X383000Y216000D02*
X399453Y199547D01*
X261500Y126000D02*
X324216Y188716D01*
X369601Y225601D02*
X383000Y239000D01*
X344824Y225601D02*
X369601D01*
X331500Y212278D02*
X344824Y225601D01*
X347655Y264194D02*
X352849Y259000D01*
X331500Y264194D02*
X347655D01*
X352849Y259000D02*
X353000D01*
X340500Y281500D02*
X363000Y259000D01*
X331500Y281500D02*
X340500D01*
X268556Y246944D02*
X301444D01*
X268500Y247000D02*
X268556Y246944D01*
X301444D02*
X301500Y246889D01*
X294083Y237000D02*
X301500Y229583D01*
X268500Y237000D02*
X294083D01*
X277495Y227000D02*
X292217Y212278D01*
X301500D01*
X268500Y227000D02*
X277495D01*
X279472Y217000D02*
X301500Y194972D01*
X268500Y217000D02*
X279472D01*
X297353Y178147D02*
X301019D01*
X268500Y207000D02*
X297353Y178147D01*
X301019D02*
X301500Y177667D01*
X301000Y36870D02*
Y48130D01*
X281000Y68130D02*
X301000Y48130D01*
X320276Y26146D02*
X331000Y36870D01*
X301000D02*
X311000D01*
X321000D01*
X281000D02*
Y51992D01*
X351000Y68130D02*
X369500Y86630D01*
Y96000D01*
X351500Y78630D02*
Y96000D01*
X341000Y68130D02*
X351500Y78630D01*
X331000Y68522D02*
X333500Y71022D01*
Y96000D01*
X331000Y68130D02*
Y68522D01*
X315500Y73630D02*
Y96000D01*
Y73630D02*
X321000Y68130D01*
X290352Y78778D02*
X301000Y68130D01*
X297500Y81630D02*
X311000Y68130D01*
X279500Y96000D02*
X290352Y85148D01*
Y78778D02*
Y85148D01*
X297500Y81630D02*
Y96000D01*
X277069Y82061D02*
X291000Y68130D01*
X261500Y96000D02*
X275439Y82061D01*
X277069D01*
X214309Y154191D02*
X214500Y154000D01*
X208128Y164372D02*
X214309Y158191D01*
Y154191D02*
Y158191D01*
X145000Y7000D02*
X151000Y13000D01*
X138000Y7000D02*
X145000D01*
X122000Y111510D02*
Y116445D01*
X113500Y116406D02*
X115891Y114015D01*
Y113744D02*
Y114015D01*
X117650Y107160D02*
X122000Y111510D01*
X118500Y119945D02*
X122000Y116445D01*
X113500Y116406D02*
Y141000D01*
X202628Y164372D02*
X208128D01*
X199596Y148596D02*
X206500Y155500D01*
X199596Y143596D02*
Y148596D01*
X194000Y179000D02*
X201500D01*
X183000Y168000D02*
X194000Y179000D01*
X181000Y93000D02*
Y103000D01*
Y133000D02*
Y143000D01*
Y113000D02*
Y123000D01*
Y133000D01*
Y103000D02*
Y113000D01*
Y83000D02*
Y93000D01*
X151000Y83000D02*
Y93000D01*
X49500Y7500D02*
X50000Y7000D01*
X44156Y7500D02*
X49500D01*
X27130Y24526D02*
X44156Y7500D01*
X5000Y67480D02*
X27130Y45350D01*
Y24526D02*
Y45350D01*
X5000Y67480D02*
Y203000D01*
X19000Y217000D01*
X97692Y7714D02*
X110000Y20022D01*
X53500Y18523D02*
X64308Y7714D01*
X97692D01*
X196000Y171000D02*
X202628Y164372D01*
X196559Y135441D02*
Y136633D01*
X183692Y149500D02*
X196559Y136633D01*
X171346Y149500D02*
X183692D01*
X95000Y86663D02*
X115497Y107160D01*
X118500Y119945D02*
Y125580D01*
X113500Y141000D02*
X118000Y145500D01*
X115497Y107160D02*
X117650D01*
X118500Y125580D02*
X127420Y134500D01*
X131550D01*
X106497Y143997D02*
X118000Y155500D01*
X106497Y119058D02*
Y143997D01*
X105350Y117911D02*
X106497Y119058D01*
X105350Y115126D02*
Y117911D01*
X95000Y104776D02*
X105350Y115126D01*
X116500Y33000D02*
X126500Y23000D01*
X151000D01*
X113500Y41500D02*
X130000D01*
X110000Y20022D02*
Y38000D01*
X113500Y41500D01*
X181000Y63000D02*
X201904Y83904D01*
Y84904D01*
X202000Y85000D01*
X124068Y183500D02*
X139068Y168500D01*
X110000Y183500D02*
X124068D01*
X139068Y168500D02*
X153000D01*
X47000Y162500D02*
X83500D01*
X47500Y112000D02*
Y130500D01*
X136500Y188500D02*
X160500D01*
X168500Y180500D01*
X79500Y137500D02*
X101500Y159500D01*
X106500D01*
X47500Y130500D02*
X48500Y129500D01*
X68000Y112000D02*
X68102Y112102D01*
Y146500D01*
X69842Y97730D02*
X95000Y122888D01*
X69842Y72185D02*
Y97730D01*
X53500Y18523D02*
Y84720D01*
X55898Y87118D01*
Y146500D01*
X131550Y134500D02*
X153801Y156751D01*
X158250D01*
X197000Y195500D01*
X95000Y14214D02*
Y32326D01*
Y50439D01*
Y68551D01*
X150188Y73000D02*
X151000D01*
X148137Y75051D02*
X150188Y73000D01*
X122308Y75051D02*
X148137D01*
X115808Y68551D02*
X122308Y75051D01*
X95000Y68551D02*
X115808D01*
X119000Y170356D02*
X125500Y163856D01*
Y141000D02*
Y163856D01*
X180500Y202000D02*
X187000Y195500D01*
X156500D02*
X163000Y202000D01*
X180500D01*
X187000Y195500D02*
Y196312D01*
X183727Y199585D02*
Y226000D01*
Y199585D02*
X187000Y196312D01*
X94500Y170356D02*
X119000D01*
X70000D02*
X94500D01*
X40500Y191039D02*
X49317D01*
X70000Y170356D01*
X12520Y191020D02*
X40480D01*
X40500Y191039D01*
X12500Y191000D02*
X12520Y191020D01*
X40500Y137000D02*
Y181000D01*
X31500Y128000D02*
X40500Y137000D01*
X31500Y105500D02*
Y128000D01*
X92127Y52500D02*
X94188Y50439D01*
X60000Y52500D02*
X92127D01*
X94188Y50439D02*
X95000D01*
X171000Y73000D02*
X181000Y83000D01*
X151000Y73000D02*
X171000D01*
X194500Y6500D02*
X204500Y16500D01*
X177500Y6500D02*
X194500D01*
X151000Y33000D02*
X177500Y6500D01*
X181000Y13000D02*
X188750D01*
X202250Y26500D01*
X210000D01*
X181574Y23574D02*
X187974D01*
X181000Y23000D02*
X181574Y23574D01*
X195501Y47501D02*
Y50201D01*
X181000Y33000D02*
X195501Y47501D01*
X181000Y43000D02*
X195501Y57501D01*
X210000Y73892D02*
Y83800D01*
X195501Y59393D02*
X210000Y73892D01*
X195501Y57501D02*
Y59393D01*
X196559Y135441D02*
X210000Y122000D01*
X164846Y143000D02*
X171346Y149500D01*
X151000Y143000D02*
X164846D01*
X125000Y122888D02*
X125056Y122944D01*
X150944D01*
X151000Y123000D01*
X142775Y104776D02*
X151000Y113000D01*
X125000Y104776D02*
X142775D01*
X134663Y86663D02*
X151000Y103000D01*
X125000Y86663D02*
X134663D01*
X125000Y68551D02*
X125224D01*
X150776Y43000D02*
X151000D01*
X125224Y68551D02*
X150776Y43000D01*
X133561Y50439D02*
X151000Y33000D01*
X125000Y50439D02*
X133561D01*
X141674Y32326D02*
X151000Y23000D01*
X125000Y32326D02*
X141674D01*
X148974Y14214D02*
X150188Y13000D01*
X151000D01*
X125000Y14214D02*
X148974D01*
X240000Y26500D02*
Y45600D01*
X201000Y256000D02*
Y276000D01*
X203000Y278000D01*
X183727Y268727D02*
X193000Y278000D01*
X183727Y256000D02*
Y268727D01*
X166927Y256473D02*
Y277527D01*
X166455Y256000D02*
X166927Y256473D01*
Y277527D02*
X167400Y278000D01*
X149182Y256000D02*
Y269782D01*
X157400Y278000D01*
X131854Y256054D02*
Y277945D01*
X131800Y278000D02*
X131854Y277945D01*
Y256054D02*
X131909Y256000D01*
X114636D02*
Y270836D01*
X121800Y278000D01*
X96790Y256574D02*
Y277410D01*
X96200Y278000D02*
X96790Y277410D01*
Y256574D02*
X97364Y256000D01*
X80091Y271891D02*
X86200Y278000D01*
X80091Y256000D02*
Y271891D01*
X60600Y278000D02*
X62818Y275782D01*
Y256000D02*
Y275782D01*
X45545Y272448D02*
X50600Y277502D01*
X45545Y256000D02*
Y272448D01*
X50600Y277502D02*
Y278000D01*
X25000D02*
X28273Y274727D01*
Y256000D02*
Y274727D01*
X11000Y273188D02*
X15000Y277188D01*
Y278000D01*
X11000Y256000D02*
Y273188D01*
X183727Y226000D02*
X201000D01*
X166455D02*
X183727D01*
X149182D02*
X166455D01*
X131909D02*
X149182D01*
X114636D02*
X131909D01*
X97364D02*
X114636D01*
X80091D02*
X97364D01*
X62818D02*
X80091D01*
X45545D02*
X62818D01*
X28273D02*
X45545D01*
X11000D02*
X28273D01*
D23*
X353000Y196000D02*
D03*
X60000Y22972D02*
D03*
X353000Y239000D02*
D03*
X40500Y201079D02*
D03*
X12500Y181000D02*
D03*
D24*
X363000Y196000D02*
D03*
X373000D02*
D03*
X383000D02*
D03*
X393000D02*
D03*
X353000Y216000D02*
D03*
X363000D02*
D03*
X373000D02*
D03*
X383000D02*
D03*
X393000D02*
D03*
X60000Y82028D02*
D03*
X69842Y32815D02*
D03*
Y72185D02*
D03*
X60000Y52500D02*
D03*
X20630Y42658D02*
D03*
Y62343D02*
D03*
X151000Y133000D02*
D03*
Y123000D02*
D03*
Y113000D02*
D03*
Y103000D02*
D03*
Y93000D02*
D03*
Y83000D02*
D03*
Y73000D02*
D03*
Y63000D02*
D03*
Y53000D02*
D03*
Y43000D02*
D03*
Y33000D02*
D03*
Y23000D02*
D03*
Y13000D02*
D03*
X181000Y143000D02*
D03*
Y133000D02*
D03*
Y123000D02*
D03*
Y113000D02*
D03*
Y103000D02*
D03*
Y93000D02*
D03*
Y83000D02*
D03*
Y73000D02*
D03*
Y63000D02*
D03*
Y53000D02*
D03*
Y43000D02*
D03*
Y33000D02*
D03*
Y23000D02*
D03*
Y13000D02*
D03*
X281000Y68130D02*
D03*
X291000D02*
D03*
X301000D02*
D03*
X311000D02*
D03*
X321000D02*
D03*
X331000D02*
D03*
X341000D02*
D03*
X351000D02*
D03*
Y36870D02*
D03*
X341000D02*
D03*
X331000D02*
D03*
X321000D02*
D03*
X311000D02*
D03*
X301000D02*
D03*
X291000D02*
D03*
X237240Y267000D02*
D03*
Y257000D02*
D03*
Y247000D02*
D03*
Y237000D02*
D03*
Y227000D02*
D03*
Y217000D02*
D03*
Y207000D02*
D03*
X268500D02*
D03*
Y217000D02*
D03*
Y227000D02*
D03*
Y237000D02*
D03*
Y247000D02*
D03*
Y257000D02*
D03*
Y267000D02*
D03*
Y277000D02*
D03*
X393000Y259000D02*
D03*
X383000D02*
D03*
X373000D02*
D03*
X363000D02*
D03*
X353000D02*
D03*
X393000Y239000D02*
D03*
X383000D02*
D03*
X373000D02*
D03*
X363000D02*
D03*
X331500Y246889D02*
D03*
X301500D02*
D03*
X331500Y229583D02*
D03*
X301500D02*
D03*
X331500Y212278D02*
D03*
X301500D02*
D03*
X331500Y194972D02*
D03*
X301500D02*
D03*
X331500Y177667D02*
D03*
X301500D02*
D03*
X331500Y281500D02*
D03*
X301500D02*
D03*
X331500Y264194D02*
D03*
X301500D02*
D03*
X297500Y126000D02*
D03*
Y96000D02*
D03*
X315500Y126000D02*
D03*
Y96000D02*
D03*
X333500Y126000D02*
D03*
Y96000D02*
D03*
X351500Y126000D02*
D03*
Y96000D02*
D03*
X369500Y126000D02*
D03*
Y96000D02*
D03*
X261500Y126000D02*
D03*
Y96000D02*
D03*
X279500Y126000D02*
D03*
Y96000D02*
D03*
X15000Y278000D02*
D03*
X50600D02*
D03*
X86200D02*
D03*
X121800D02*
D03*
X157400D02*
D03*
X193000D02*
D03*
X95000Y14214D02*
D03*
X125000D02*
D03*
X197000Y195500D02*
D03*
X187000D02*
D03*
X166500D02*
D03*
X156500D02*
D03*
X240000Y45600D02*
D03*
X210000D02*
D03*
X240000Y64700D02*
D03*
X210000D02*
D03*
X240000Y83800D02*
D03*
X210000D02*
D03*
X95000Y32326D02*
D03*
X125000D02*
D03*
X95000Y50439D02*
D03*
X125000D02*
D03*
X95000Y68551D02*
D03*
X125000D02*
D03*
X240000Y26500D02*
D03*
X210000D02*
D03*
X11500Y151000D02*
D03*
Y105500D02*
D03*
Y128000D02*
D03*
X40500Y181000D02*
D03*
Y191039D02*
D03*
X183727Y256000D02*
D03*
Y226000D02*
D03*
X149182Y256000D02*
D03*
Y226000D02*
D03*
X114636Y256000D02*
D03*
Y226000D02*
D03*
X80091Y256000D02*
D03*
Y226000D02*
D03*
X45545Y256000D02*
D03*
Y226000D02*
D03*
X11000Y256000D02*
D03*
Y226000D02*
D03*
X240000Y122000D02*
D03*
X210000D02*
D03*
X28273Y256000D02*
D03*
Y226000D02*
D03*
X62818Y256000D02*
D03*
Y226000D02*
D03*
X97364Y256000D02*
D03*
Y226000D02*
D03*
X131909Y256000D02*
D03*
Y226000D02*
D03*
X119000Y200356D02*
D03*
Y170356D02*
D03*
X166455Y256000D02*
D03*
Y226000D02*
D03*
X201000Y256000D02*
D03*
Y226000D02*
D03*
X125000Y122888D02*
D03*
X95000D02*
D03*
X125000Y104776D02*
D03*
X95000D02*
D03*
X210000Y102900D02*
D03*
X240000D02*
D03*
X125000Y86663D02*
D03*
X95000D02*
D03*
X12500Y191000D02*
D03*
X55898Y146500D02*
D03*
X68102D02*
D03*
X94500Y170356D02*
D03*
Y200356D02*
D03*
X70000D02*
D03*
Y170356D02*
D03*
X95500Y141000D02*
D03*
X125500D02*
D03*
D25*
X40315Y82028D02*
D03*
Y22972D02*
D03*
D26*
X151000Y143000D02*
D03*
X60600Y278000D02*
D03*
X96200D02*
D03*
X131800D02*
D03*
X167400D02*
D03*
X203000D02*
D03*
X25000D02*
D03*
X31500Y151000D02*
D03*
Y105500D02*
D03*
Y128000D02*
D03*
D27*
X281000Y36870D02*
D03*
D28*
X237240Y277000D02*
D03*
D29*
X341745Y185505D02*
D03*
X249557Y210679D02*
D03*
X268500Y185500D02*
D03*
X239000Y182500D02*
D03*
X228000Y129500D02*
D03*
X216720Y196749D02*
D03*
X214500Y154000D02*
D03*
X138000Y7000D02*
D03*
X115891Y113744D02*
D03*
X199250Y143750D02*
D03*
X206500Y155500D02*
D03*
X206672Y182172D02*
D03*
X50000Y7000D02*
D03*
X19000Y217000D02*
D03*
X196000Y171000D02*
D03*
X118000Y145500D02*
D03*
X116500Y33000D02*
D03*
X202000Y85000D02*
D03*
X183000Y168000D02*
D03*
X153000Y168500D02*
D03*
X110000Y183500D02*
D03*
X83500Y162500D02*
D03*
X47000D02*
D03*
X168500Y180500D02*
D03*
X136500Y188500D02*
D03*
X106500Y159500D02*
D03*
X79500Y137500D02*
D03*
X48500Y129500D02*
D03*
X47500Y112000D02*
D03*
X68000D02*
D03*
X130000Y41500D02*
D03*
X118000Y155500D02*
D03*
X204500Y16500D02*
D03*
M02*
