G04*
G04 #@! TF.GenerationSoftware,Altium Limited,Altium Designer,22.1.2 (22)*
G04*
G04 Layer_Color=65535*
%FSLAX25Y25*%
%MOIN*%
G70*
G04*
G04 #@! TF.SameCoordinates,8F418984-8156-4F93-B3CA-C30CAEC08A5D*
G04*
G04*
G04 #@! TF.FilePolarity,Positive*
G04*
G01*
G75*
%ADD10C,0.00984*%
%ADD11C,0.00787*%
%ADD12C,0.02362*%
%ADD13C,0.00500*%
%ADD14C,0.01000*%
D10*
X353492Y187890D02*
X352754Y188316D01*
Y187464D01*
X353492Y187890D01*
X151492Y148118D02*
X150754Y148544D01*
Y147692D01*
X151492Y148118D01*
X353492Y230890D02*
X352754Y231316D01*
Y230464D01*
X353492Y230890D01*
X40736Y151004D02*
X39998Y151430D01*
Y150578D01*
X40736Y151004D01*
Y105504D02*
X39998Y105930D01*
Y105078D01*
X40736Y105504D01*
Y128004D02*
X39998Y128430D01*
Y127578D01*
X40736Y128004D01*
D11*
X60764Y10122D02*
X59976D01*
X60764D01*
X163500Y147685D02*
X163690Y146728D01*
X164232Y145917D01*
X165043Y145375D01*
X166000Y145185D01*
X166957Y145375D01*
X167768Y145917D01*
X168310Y146728D01*
X168500Y147685D01*
X281394Y32677D02*
X280606D01*
X281394D01*
X233441Y277000D02*
X232653D01*
X233441D01*
X32252Y201079D02*
X31465D01*
X32252D01*
X57452Y142476D02*
X58206Y141752D01*
X59073Y141167D01*
X60027Y140739D01*
X61039Y140480D01*
X62082Y140398D01*
X63123Y140495D01*
X64132Y140768D01*
X65080Y141209D01*
X65938Y141806D01*
X66682Y142540D01*
X66643Y150460D02*
X65899Y151195D01*
X65040Y151791D01*
X64093Y152232D01*
X63083Y152506D01*
X62042Y152602D01*
X61000Y152520D01*
X59987Y152261D01*
X59034Y151833D01*
X58167Y151248D01*
X57412Y150524D01*
X347213Y221551D02*
X398787D01*
Y190449D02*
Y221551D01*
X347213Y190449D02*
X398787D01*
X347213D02*
Y221551D01*
X155567Y8315D02*
Y147685D01*
X176433Y8315D02*
Y147685D01*
X155567D02*
X163500D01*
X168500D02*
X176433D01*
X155567Y8315D02*
X176433D01*
X347213Y233449D02*
Y264551D01*
Y233449D02*
X398787D01*
Y264551D01*
X347213D02*
X398787D01*
X326500Y246889D02*
Y249889D01*
X306500D02*
X326500D01*
X306500Y243889D02*
Y249889D01*
Y243889D02*
X326500D01*
Y246889D01*
X305600D02*
X306500D01*
X326500D02*
X327400D01*
X326500Y229583D02*
Y232583D01*
X306500D02*
X326500D01*
X306500Y226583D02*
Y232583D01*
Y226583D02*
X326500D01*
Y229583D01*
X305600D02*
X306500D01*
X326500D02*
X327400D01*
X326500Y212278D02*
Y215278D01*
X306500D02*
X326500D01*
X306500Y209278D02*
Y215278D01*
Y209278D02*
X326500D01*
Y212278D01*
X305600D02*
X306500D01*
X326500D02*
X327400D01*
X326500Y194972D02*
Y197972D01*
X306500D02*
X326500D01*
X306500Y191972D02*
Y197972D01*
Y191972D02*
X326500D01*
Y194972D01*
X305600D02*
X306500D01*
X326500D02*
X327400D01*
X326500Y177667D02*
Y180667D01*
X306500D02*
X326500D01*
X306500Y174667D02*
Y180667D01*
Y174667D02*
X326500D01*
Y177667D01*
X305600D02*
X306500D01*
X326500D02*
X327400D01*
X326500Y281500D02*
Y284500D01*
X306500D02*
X326500D01*
X306500Y278500D02*
Y284500D01*
Y278500D02*
X326500D01*
Y281500D01*
X305600D02*
X306500D01*
X326500D02*
X327400D01*
X326500Y264194D02*
Y267194D01*
X306500D02*
X326500D01*
X306500Y261194D02*
Y267194D01*
Y261194D02*
X326500D01*
Y264194D01*
X305600D02*
X306500D01*
X326500D02*
X327400D01*
X294500Y121000D02*
X297500D01*
X294500Y101000D02*
Y121000D01*
Y101000D02*
X300500D01*
Y121000D01*
X297500D02*
X300500D01*
X297500Y100100D02*
Y101000D01*
Y121000D02*
Y121900D01*
X312500Y121000D02*
X315500D01*
X312500Y101000D02*
Y121000D01*
Y101000D02*
X318500D01*
Y121000D01*
X315500D02*
X318500D01*
X315500Y100100D02*
Y101000D01*
Y121000D02*
Y121900D01*
X330500Y121000D02*
X333500D01*
X330500Y101000D02*
Y121000D01*
Y101000D02*
X336500D01*
Y121000D01*
X333500D02*
X336500D01*
X333500Y100100D02*
Y101000D01*
Y121000D02*
Y121900D01*
X348500Y121000D02*
X351500D01*
X348500Y101000D02*
Y121000D01*
Y101000D02*
X354500D01*
Y121000D01*
X351500D02*
X354500D01*
X351500Y100100D02*
Y101000D01*
Y121000D02*
Y121900D01*
X366500Y121000D02*
X369500D01*
X366500Y101000D02*
Y121000D01*
Y101000D02*
X372500D01*
Y121000D01*
X369500D02*
X372500D01*
X369500Y100100D02*
Y101000D01*
Y121000D02*
Y121900D01*
X258500Y121000D02*
X261500D01*
X258500Y101000D02*
Y121000D01*
Y101000D02*
X264500D01*
Y121000D01*
X261500D02*
X264500D01*
X261500Y100100D02*
Y101000D01*
Y121000D02*
Y121900D01*
X276500Y121000D02*
X279500D01*
X276500Y101000D02*
Y121000D01*
Y101000D02*
X282500D01*
Y121000D01*
X279500D02*
X282500D01*
X279500Y100100D02*
Y101000D01*
Y121000D02*
Y121900D01*
X45600Y273000D02*
Y283000D01*
X65600D01*
Y273000D02*
Y283000D01*
X45600Y273000D02*
X65600D01*
X81200D02*
Y283000D01*
X101200D01*
Y273000D02*
Y283000D01*
X81200Y273000D02*
X101200D01*
X116800D02*
Y283000D01*
X136800D01*
Y273000D02*
Y283000D01*
X116800Y273000D02*
X136800D01*
X152400D02*
Y283000D01*
X172400D01*
Y273000D02*
Y283000D01*
X152400Y273000D02*
X172400D01*
X188000D02*
Y283000D01*
X208000D01*
Y273000D02*
Y283000D01*
X188000Y273000D02*
X208000D01*
X10000D02*
Y283000D01*
X30000D01*
Y273000D02*
Y283000D01*
X10000Y273000D02*
X30000D01*
X120000Y14214D02*
X120900D01*
X99100D02*
X100000D01*
X120000Y11214D02*
Y14214D01*
X100000Y11214D02*
X120000D01*
X100000D02*
Y17214D01*
X120000D01*
Y14214D02*
Y17214D01*
X214100Y45600D02*
X215000D01*
X235000D02*
X235900D01*
X215000D02*
Y48600D01*
X235000D01*
Y42600D02*
Y48600D01*
X215000Y42600D02*
X235000D01*
X215000D02*
Y45600D01*
X214100Y64700D02*
X215000D01*
X235000D02*
X235900D01*
X215000D02*
Y67700D01*
X235000D01*
Y61700D02*
Y67700D01*
X215000Y61700D02*
X235000D01*
X215000D02*
Y64700D01*
X214100Y83800D02*
X215000D01*
X235000D02*
X235900D01*
X215000D02*
Y86800D01*
X235000D01*
Y80800D02*
Y86800D01*
X215000Y80800D02*
X235000D01*
X215000D02*
Y83800D01*
X120000Y32326D02*
X120900D01*
X99100D02*
X100000D01*
X120000Y29327D02*
Y32326D01*
X100000Y29327D02*
X120000D01*
X100000D02*
Y35326D01*
X120000D01*
Y32326D02*
Y35326D01*
Y50439D02*
X120900D01*
X99100D02*
X100000D01*
X120000Y47439D02*
Y50439D01*
X100000Y47439D02*
X120000D01*
X100000D02*
Y53439D01*
X120000D01*
Y50439D02*
Y53439D01*
Y68551D02*
X120900D01*
X99100D02*
X100000D01*
X120000Y65551D02*
Y68551D01*
X100000Y65551D02*
X120000D01*
X100000D02*
Y71551D01*
X120000D01*
Y68551D02*
Y71551D01*
X214100Y26500D02*
X215000D01*
X235000D02*
X235900D01*
X215000D02*
Y29500D01*
X235000D01*
Y23500D02*
Y29500D01*
X215000Y23500D02*
X235000D01*
X215000D02*
Y26500D01*
X4650Y146000D02*
X38350D01*
X4650D02*
Y156000D01*
X38350D01*
Y146000D02*
Y156000D01*
X4650Y100500D02*
X38350D01*
X4650D02*
Y110500D01*
X38350D01*
Y100500D02*
Y110500D01*
X4650Y123000D02*
X38350D01*
X4650D02*
Y133000D01*
X38350D01*
Y123000D02*
Y133000D01*
X180727Y251000D02*
X183727D01*
X180727Y231000D02*
Y251000D01*
Y231000D02*
X186727D01*
Y251000D01*
X183727D02*
X186727D01*
X183727Y230100D02*
Y231000D01*
Y251000D02*
Y251900D01*
X146182Y251000D02*
X149182D01*
X146182Y231000D02*
Y251000D01*
Y231000D02*
X152182D01*
Y251000D01*
X149182D02*
X152182D01*
X149182Y230100D02*
Y231000D01*
Y251000D02*
Y251900D01*
X111636Y251000D02*
X114636D01*
X111636Y231000D02*
Y251000D01*
Y231000D02*
X117636D01*
Y251000D01*
X114636D02*
X117636D01*
X114636Y230100D02*
Y231000D01*
Y251000D02*
Y251900D01*
X77091Y251000D02*
X80091D01*
X77091Y231000D02*
Y251000D01*
Y231000D02*
X83091D01*
Y251000D01*
X80091D02*
X83091D01*
X80091Y230100D02*
Y231000D01*
Y251000D02*
Y251900D01*
X42545Y251000D02*
X45545D01*
X42545Y231000D02*
Y251000D01*
Y231000D02*
X48545D01*
Y251000D01*
X45545D02*
X48545D01*
X45545Y230100D02*
Y231000D01*
Y251000D02*
Y251900D01*
X8000Y251000D02*
X11000D01*
X8000Y231000D02*
Y251000D01*
Y231000D02*
X14000D01*
Y251000D01*
X11000D02*
X14000D01*
X11000Y230100D02*
Y231000D01*
Y251000D02*
Y251900D01*
X235000Y122000D02*
Y125000D01*
X215000D02*
X235000D01*
X215000Y119000D02*
Y125000D01*
Y119000D02*
X235000D01*
Y122000D01*
X214100D02*
X215000D01*
X235000D02*
X235900D01*
X25273Y251000D02*
X28273D01*
X25273Y231000D02*
Y251000D01*
Y231000D02*
X31273D01*
Y251000D01*
X28273D02*
X31273D01*
X28273Y230100D02*
Y231000D01*
Y251000D02*
Y251900D01*
X59818Y251000D02*
X62818D01*
X59818Y231000D02*
Y251000D01*
Y231000D02*
X65818D01*
Y251000D01*
X62818D02*
X65818D01*
X62818Y230100D02*
Y231000D01*
Y251000D02*
Y251900D01*
X94364Y251000D02*
X97364D01*
X94364Y231000D02*
Y251000D01*
Y231000D02*
X100364D01*
Y251000D01*
X97364D02*
X100364D01*
X97364Y230100D02*
Y231000D01*
Y251000D02*
Y251900D01*
X128909Y251000D02*
X131909D01*
X128909Y231000D02*
Y251000D01*
Y231000D02*
X134909D01*
Y251000D01*
X131909D02*
X134909D01*
X131909Y230100D02*
Y231000D01*
Y251000D02*
Y251900D01*
X111500Y207856D02*
X126500D01*
Y162856D02*
Y207856D01*
X111500Y162856D02*
X126500D01*
X111500D02*
Y207856D01*
X163454Y251000D02*
X166455D01*
X163454Y231000D02*
Y251000D01*
Y231000D02*
X169455D01*
Y251000D01*
X166455D02*
X169455D01*
X166455Y230100D02*
Y231000D01*
Y251000D02*
Y251900D01*
X198000Y251000D02*
X201000D01*
X198000Y231000D02*
Y251000D01*
Y231000D02*
X204000D01*
Y251000D01*
X201000D02*
X204000D01*
X201000Y230100D02*
Y231000D01*
Y251000D02*
Y251900D01*
X120000Y122888D02*
Y125888D01*
X100000D02*
X120000D01*
X100000Y119888D02*
Y125888D01*
Y119888D02*
X120000D01*
Y122888D01*
X99100D02*
X100000D01*
X120000D02*
X120900D01*
X120000Y104776D02*
Y107775D01*
X100000D02*
X120000D01*
X100000Y101776D02*
Y107775D01*
Y101776D02*
X120000D01*
Y104776D01*
X99100D02*
X100000D01*
X120000D02*
X120900D01*
X215000Y99900D02*
Y102900D01*
Y99900D02*
X235000D01*
Y105900D01*
X215000D02*
X235000D01*
X215000Y102900D02*
Y105900D01*
X235000Y102900D02*
X235900D01*
X214100D02*
X215000D01*
X120000Y86663D02*
Y89663D01*
X100000D02*
X120000D01*
X100000Y83663D02*
Y89663D01*
Y83663D02*
X120000D01*
Y86663D01*
X99100D02*
X100000D01*
X120000D02*
X120900D01*
X7500Y196000D02*
X17500D01*
Y176000D02*
Y196000D01*
X7500Y176000D02*
X17500D01*
X7500D02*
Y196000D01*
X87000Y162856D02*
X102000D01*
X87000D02*
Y207856D01*
X102000D01*
Y162856D02*
Y207856D01*
X62500D02*
X77500D01*
Y162856D02*
Y207856D01*
X62500Y162856D02*
X77500D01*
X62500D02*
Y207856D01*
X100500Y138000D02*
Y141000D01*
Y138000D02*
X120500D01*
Y144000D01*
X100500D02*
X120500D01*
X100500Y141000D02*
Y144000D01*
X120500Y141000D02*
X121400D01*
X99600D02*
X100500D01*
D12*
X160685Y143748D02*
X160240Y144671D01*
X159241Y144899D01*
X158440Y144261D01*
Y143236D01*
X159241Y142596D01*
X160240Y142825D01*
X160685Y143748D01*
D13*
X182500Y165000D02*
X182552Y164007D01*
X182708Y163025D01*
X182965Y162064D01*
X183321Y161136D01*
X183773Y160250D01*
X184314Y159416D01*
X184940Y158643D01*
X185643Y157940D01*
X186416Y157314D01*
X187250Y156773D01*
X188136Y156321D01*
X189064Y155965D01*
X190025Y155708D01*
X191007Y155552D01*
X192000Y155500D01*
X192993Y155552D01*
X193975Y155708D01*
X194936Y155965D01*
X195864Y156321D01*
X196750Y156773D01*
X197584Y157314D01*
X198357Y157940D01*
X199060Y158643D01*
X199686Y159416D01*
X200227Y160250D01*
X200679Y161136D01*
X201035Y162064D01*
X201292Y163025D01*
X201448Y164007D01*
X201500Y165000D01*
X152000D02*
X152052Y164007D01*
X152208Y163025D01*
X152465Y162064D01*
X152821Y161136D01*
X153273Y160250D01*
X153814Y159416D01*
X154440Y158643D01*
X155143Y157940D01*
X155916Y157314D01*
X156750Y156773D01*
X157636Y156321D01*
X158564Y155965D01*
X159525Y155708D01*
X160507Y155552D01*
X161500Y155500D01*
X162493Y155552D01*
X163475Y155708D01*
X164436Y155965D01*
X165364Y156321D01*
X166250Y156773D01*
X167084Y157314D01*
X167857Y157940D01*
X168560Y158643D01*
X169186Y159416D01*
X169727Y160250D01*
X170179Y161136D01*
X170535Y162064D01*
X170792Y163025D01*
X170948Y164007D01*
X171000Y165000D01*
X72992Y13130D02*
Y26909D01*
X10787Y13130D02*
Y91870D01*
X72992Y78091D02*
Y91870D01*
X10787Y13130D02*
X72992D01*
X10787Y91870D02*
X72992D01*
X354484Y40000D02*
Y65000D01*
X277516Y40000D02*
Y65000D01*
X240370Y280484D02*
X265370D01*
X240370Y203516D02*
X265370D01*
X180000Y175000D02*
Y210500D01*
Y175000D02*
X204000D01*
Y210500D01*
X182500Y165000D02*
Y175000D01*
X201500Y165000D02*
Y175000D01*
X180000Y210500D02*
X184500D01*
Y200500D02*
Y210500D01*
Y200500D02*
X199500D01*
Y210500D01*
X204000D01*
X149500Y175000D02*
Y210500D01*
Y175000D02*
X173500D01*
Y210500D01*
X152000Y165000D02*
Y175000D01*
X171000Y165000D02*
Y175000D01*
X149500Y210500D02*
X154000D01*
Y200500D02*
Y210500D01*
Y200500D02*
X169000D01*
Y210500D01*
X173500D01*
X33650Y170567D02*
Y211512D01*
Y170567D02*
X51760D01*
Y211512D01*
X33650D02*
X51760D01*
D14*
X280053Y91147D02*
X276540Y87592D01*
X276548Y86178D01*
X277970Y84773D01*
X279383Y84781D01*
X282897Y88336D01*
X283616Y86219D02*
X285030Y86227D01*
X286452Y84822D01*
X286460Y83408D01*
X285758Y82697D01*
X284344Y82689D01*
X283633Y83392D01*
X284344Y82689D01*
X284352Y81275D01*
X283649Y80564D01*
X282236Y80556D01*
X280814Y81962D01*
X280805Y83375D01*
X381003Y230499D02*
Y224501D01*
X384002D01*
X385001Y225501D01*
Y229499D01*
X384002Y230499D01*
X381003D01*
X390999Y229499D02*
X390000Y230499D01*
X388000D01*
X387001Y229499D01*
Y228500D01*
X388000Y227500D01*
X390000D01*
X390999Y226500D01*
Y225501D01*
X390000Y224501D01*
X388000D01*
X387001Y225501D01*
X396997Y224501D02*
X392999D01*
X396997Y228500D01*
Y229499D01*
X395998Y230499D01*
X393998D01*
X392999Y229499D01*
X44500Y100499D02*
X42501D01*
X43500D01*
Y95501D01*
X42501Y94501D01*
X41501D01*
X40501Y95501D01*
X46499Y94501D02*
X48499D01*
X47499D01*
Y100499D01*
X46499Y99499D01*
X134501Y156999D02*
Y152001D01*
X135501Y151001D01*
X137500D01*
X138500Y152001D01*
Y156999D01*
X140499Y151001D02*
X142499D01*
X141499D01*
Y156999D01*
X140499Y155999D01*
X215900Y290798D02*
Y285800D01*
X216900Y284800D01*
X218899D01*
X219899Y285800D01*
Y290798D01*
X225897Y284800D02*
X221898D01*
X225897Y288799D01*
Y289798D01*
X224897Y290798D01*
X222898D01*
X221898Y289798D01*
X277100Y132200D02*
Y138198D01*
X280099D01*
X281099Y137198D01*
Y135199D01*
X280099Y134199D01*
X277100D01*
X279099D02*
X281099Y132200D01*
X287097D02*
X283098D01*
X287097Y136199D01*
Y137198D01*
X286097Y138198D01*
X284098D01*
X283098Y137198D01*
X289096D02*
X290096Y138198D01*
X292095D01*
X293095Y137198D01*
Y136199D01*
X292095Y135199D01*
X293095Y134199D01*
Y133200D01*
X292095Y132200D01*
X290096D01*
X289096Y133200D01*
Y134199D01*
X290096Y135199D01*
X289096Y136199D01*
Y137198D01*
X290096Y135199D02*
X292095D01*
X259100Y132200D02*
Y138198D01*
X262099D01*
X263099Y137198D01*
Y135199D01*
X262099Y134199D01*
X259100D01*
X261099D02*
X263099Y132200D01*
X269097D02*
X265098D01*
X269097Y136199D01*
Y137198D01*
X268097Y138198D01*
X266098D01*
X265098Y137198D01*
X271096Y138198D02*
X275095D01*
Y137198D01*
X271096Y133200D01*
Y132200D01*
X367100D02*
Y138198D01*
X370099D01*
X371099Y137198D01*
Y135199D01*
X370099Y134199D01*
X367100D01*
X369099D02*
X371099Y132200D01*
X377097D02*
X373098D01*
X377097Y136199D01*
Y137198D01*
X376097Y138198D01*
X374098D01*
X373098Y137198D01*
X383095Y138198D02*
X381096Y137198D01*
X379096Y135199D01*
Y133200D01*
X380096Y132200D01*
X382095D01*
X383095Y133200D01*
Y134199D01*
X382095Y135199D01*
X379096D01*
X349100Y132200D02*
Y138198D01*
X352099D01*
X353099Y137198D01*
Y135199D01*
X352099Y134199D01*
X349100D01*
X351099D02*
X353099Y132200D01*
X359097D02*
X355098D01*
X359097Y136199D01*
Y137198D01*
X358097Y138198D01*
X356098D01*
X355098Y137198D01*
X365095Y138198D02*
X361096D01*
Y135199D01*
X363095Y136199D01*
X364095D01*
X365095Y135199D01*
Y133200D01*
X364095Y132200D01*
X362096D01*
X361096Y133200D01*
X331100Y132200D02*
Y138198D01*
X334099D01*
X335099Y137198D01*
Y135199D01*
X334099Y134199D01*
X331100D01*
X333099D02*
X335099Y132200D01*
X341097D02*
X337098D01*
X341097Y136199D01*
Y137198D01*
X340097Y138198D01*
X338098D01*
X337098Y137198D01*
X346095Y132200D02*
Y138198D01*
X343096Y135199D01*
X347095D01*
X313100Y132200D02*
Y138198D01*
X316099D01*
X317099Y137198D01*
Y135199D01*
X316099Y134199D01*
X313100D01*
X315099D02*
X317099Y132200D01*
X323097D02*
X319098D01*
X323097Y136199D01*
Y137198D01*
X322097Y138198D01*
X320098D01*
X319098Y137198D01*
X325096D02*
X326096Y138198D01*
X328095D01*
X329095Y137198D01*
Y136199D01*
X328095Y135199D01*
X327096D01*
X328095D01*
X329095Y134199D01*
Y133200D01*
X328095Y132200D01*
X326096D01*
X325096Y133200D01*
X295100Y132200D02*
Y138198D01*
X298099D01*
X299099Y137198D01*
Y135199D01*
X298099Y134199D01*
X295100D01*
X297099D02*
X299099Y132200D01*
X305097D02*
X301098D01*
X305097Y136199D01*
Y137198D01*
X304097Y138198D01*
X302098D01*
X301098Y137198D01*
X311095Y132200D02*
X307096D01*
X311095Y136199D01*
Y137198D01*
X310095Y138198D01*
X308096D01*
X307096Y137198D01*
X299300Y270600D02*
Y276598D01*
X302299D01*
X303299Y275598D01*
Y273599D01*
X302299Y272599D01*
X299300D01*
X301299D02*
X303299Y270600D01*
X309297D02*
X305298D01*
X309297Y274599D01*
Y275598D01*
X308297Y276598D01*
X306298D01*
X305298Y275598D01*
X311296Y270600D02*
X313296D01*
X312296D01*
Y276598D01*
X311296Y275598D01*
X299300Y287900D02*
Y293898D01*
X302299D01*
X303299Y292898D01*
Y290899D01*
X302299Y289899D01*
X299300D01*
X301299D02*
X303299Y287900D01*
X309297D02*
X305298D01*
X309297Y291899D01*
Y292898D01*
X308297Y293898D01*
X306298D01*
X305298Y292898D01*
X311296D02*
X312296Y293898D01*
X314295D01*
X315295Y292898D01*
Y288900D01*
X314295Y287900D01*
X312296D01*
X311296Y288900D01*
Y292898D01*
X299300Y184100D02*
Y190098D01*
X302299D01*
X303299Y189098D01*
Y187099D01*
X302299Y186099D01*
X299300D01*
X301299D02*
X303299Y184100D01*
X305298D02*
X307297D01*
X306298D01*
Y190098D01*
X305298Y189098D01*
X310296Y185100D02*
X311296Y184100D01*
X313296D01*
X314295Y185100D01*
Y189098D01*
X313296Y190098D01*
X311296D01*
X310296Y189098D01*
Y188099D01*
X311296Y187099D01*
X314295D01*
X299300Y201400D02*
Y207398D01*
X302299D01*
X303299Y206398D01*
Y204399D01*
X302299Y203399D01*
X299300D01*
X301299D02*
X303299Y201400D01*
X305298D02*
X307297D01*
X306298D01*
Y207398D01*
X305298Y206398D01*
X310296D02*
X311296Y207398D01*
X313296D01*
X314295Y206398D01*
Y205399D01*
X313296Y204399D01*
X314295Y203399D01*
Y202400D01*
X313296Y201400D01*
X311296D01*
X310296Y202400D01*
Y203399D01*
X311296Y204399D01*
X310296Y205399D01*
Y206398D01*
X311296Y204399D02*
X313296D01*
X299300Y218700D02*
Y224698D01*
X302299D01*
X303299Y223698D01*
Y221699D01*
X302299Y220699D01*
X299300D01*
X301299D02*
X303299Y218700D01*
X305298D02*
X307297D01*
X306298D01*
Y224698D01*
X305298Y223698D01*
X310296Y224698D02*
X314295D01*
Y223698D01*
X310296Y219700D01*
Y218700D01*
X299300Y236000D02*
Y241998D01*
X302299D01*
X303299Y240998D01*
Y238999D01*
X302299Y237999D01*
X299300D01*
X301299D02*
X303299Y236000D01*
X305298D02*
X307297D01*
X306298D01*
Y241998D01*
X305298Y240998D01*
X314295Y241998D02*
X312296Y240998D01*
X310296Y238999D01*
Y237000D01*
X311296Y236000D01*
X313296D01*
X314295Y237000D01*
Y237999D01*
X313296Y238999D01*
X310296D01*
X299300Y253300D02*
Y259298D01*
X302299D01*
X303299Y258298D01*
Y256299D01*
X302299Y255299D01*
X299300D01*
X301299D02*
X303299Y253300D01*
X305298D02*
X307297D01*
X306298D01*
Y259298D01*
X305298Y258298D01*
X314295Y259298D02*
X310296D01*
Y256299D01*
X312296Y257299D01*
X313296D01*
X314295Y256299D01*
Y254300D01*
X313296Y253300D01*
X311296D01*
X310296Y254300D01*
X347800Y273898D02*
Y267900D01*
X350799D01*
X351799Y268900D01*
Y272898D01*
X350799Y273898D01*
X347800D01*
X357797Y272898D02*
X356797Y273898D01*
X354798D01*
X353798Y272898D01*
Y271899D01*
X354798Y270899D01*
X356797D01*
X357797Y269899D01*
Y268900D01*
X356797Y267900D01*
X354798D01*
X353798Y268900D01*
X359796Y267900D02*
X361795D01*
X360796D01*
Y273898D01*
X359796Y272898D01*
X188600Y286400D02*
Y292398D01*
X191599D01*
X192599Y291398D01*
Y289399D01*
X191599Y288399D01*
X188600D01*
X194598Y292398D02*
X198597D01*
Y291398D01*
X194598Y287400D01*
Y286400D01*
X153000D02*
Y292398D01*
X155999D01*
X156999Y291398D01*
Y289399D01*
X155999Y288399D01*
X153000D01*
X162997Y292398D02*
X160997Y291398D01*
X158998Y289399D01*
Y287400D01*
X159998Y286400D01*
X161997D01*
X162997Y287400D01*
Y288399D01*
X161997Y289399D01*
X158998D01*
X117400Y286400D02*
Y292398D01*
X120399D01*
X121399Y291398D01*
Y289399D01*
X120399Y288399D01*
X117400D01*
X127397Y292398D02*
X123398D01*
Y289399D01*
X125397Y290399D01*
X126397D01*
X127397Y289399D01*
Y287400D01*
X126397Y286400D01*
X124398D01*
X123398Y287400D01*
X81800Y286400D02*
Y292398D01*
X84799D01*
X85799Y291398D01*
Y289399D01*
X84799Y288399D01*
X81800D01*
X90797Y286400D02*
Y292398D01*
X87798Y289399D01*
X91797D01*
X46200Y286400D02*
Y292398D01*
X49199D01*
X50199Y291398D01*
Y289399D01*
X49199Y288399D01*
X46200D01*
X52198Y291398D02*
X53198Y292398D01*
X55197D01*
X56197Y291398D01*
Y290399D01*
X55197Y289399D01*
X54197D01*
X55197D01*
X56197Y288399D01*
Y287400D01*
X55197Y286400D01*
X53198D01*
X52198Y287400D01*
X10600Y286400D02*
Y292398D01*
X13599D01*
X14599Y291398D01*
Y289399D01*
X13599Y288399D01*
X10600D01*
X20597Y286400D02*
X16598D01*
X20597Y290399D01*
Y291398D01*
X19597Y292398D01*
X17598D01*
X16598Y291398D01*
X180800Y219798D02*
Y213800D01*
X183799D01*
X184799Y214800D01*
Y218798D01*
X183799Y219798D01*
X180800D01*
X190797Y213800D02*
X186798D01*
X190797Y217799D01*
Y218798D01*
X189797Y219798D01*
X187798D01*
X186798Y218798D01*
X150200Y219798D02*
Y213800D01*
X153199D01*
X154199Y214800D01*
Y218798D01*
X153199Y219798D01*
X150200D01*
X156198Y213800D02*
X158197D01*
X157198D01*
Y219798D01*
X156198Y218798D01*
X9299Y141398D02*
X8299Y142398D01*
X6300D01*
X5300Y141398D01*
Y140399D01*
X6300Y139399D01*
X8299D01*
X9299Y138399D01*
Y137400D01*
X8299Y136400D01*
X6300D01*
X5300Y137400D01*
X11298Y141398D02*
X12298Y142398D01*
X14297D01*
X15297Y141398D01*
Y140399D01*
X14297Y139399D01*
X13297D01*
X14297D01*
X15297Y138399D01*
Y137400D01*
X14297Y136400D01*
X12298D01*
X11298Y137400D01*
X9299Y164398D02*
X8299Y165398D01*
X6300D01*
X5300Y164398D01*
Y163399D01*
X6300Y162399D01*
X8299D01*
X9299Y161399D01*
Y160400D01*
X8299Y159400D01*
X6300D01*
X5300Y160400D01*
X15297Y159400D02*
X11298D01*
X15297Y163399D01*
Y164398D01*
X14297Y165398D01*
X12298D01*
X11298Y164398D01*
X9299Y118898D02*
X8299Y119898D01*
X6300D01*
X5300Y118898D01*
Y117899D01*
X6300Y116899D01*
X8299D01*
X9299Y115899D01*
Y114900D01*
X8299Y113900D01*
X6300D01*
X5300Y114900D01*
X11298Y113900D02*
X13297D01*
X12298D01*
Y119898D01*
X11298Y118898D01*
X24100Y211598D02*
Y206600D01*
X25100Y205600D01*
X27099D01*
X28099Y206600D01*
Y211598D01*
X53900Y161998D02*
Y160998D01*
X55899Y158999D01*
X57899Y160998D01*
Y161998D01*
X55899Y158999D02*
Y156000D01*
X59898D02*
X61897D01*
X60898D01*
Y161998D01*
X59898Y160998D01*
X207800Y109300D02*
Y115298D01*
X210799D01*
X211799Y114298D01*
Y112299D01*
X210799Y111299D01*
X207800D01*
X209799D02*
X211799Y109300D01*
X216797D02*
Y115298D01*
X213798Y112299D01*
X217797D01*
X219796Y114298D02*
X220796Y115298D01*
X222795D01*
X223795Y114298D01*
Y110300D01*
X222795Y109300D01*
X220796D01*
X219796Y110300D01*
Y114298D01*
X92800Y129300D02*
Y135298D01*
X95799D01*
X96799Y134298D01*
Y132299D01*
X95799Y131299D01*
X92800D01*
X94799D02*
X96799Y129300D01*
X98798Y134298D02*
X99798Y135298D01*
X101797D01*
X102797Y134298D01*
Y133299D01*
X101797Y132299D01*
X100797D01*
X101797D01*
X102797Y131299D01*
Y130300D01*
X101797Y129300D01*
X99798D01*
X98798Y130300D01*
X104796D02*
X105796Y129300D01*
X107795D01*
X108795Y130300D01*
Y134298D01*
X107795Y135298D01*
X105796D01*
X104796Y134298D01*
Y133299D01*
X105796Y132299D01*
X108795D01*
X207800Y128400D02*
Y134398D01*
X210799D01*
X211799Y133398D01*
Y131399D01*
X210799Y130399D01*
X207800D01*
X209799D02*
X211799Y128400D01*
X213798Y133398D02*
X214798Y134398D01*
X216797D01*
X217797Y133398D01*
Y132399D01*
X216797Y131399D01*
X215797D01*
X216797D01*
X217797Y130399D01*
Y129400D01*
X216797Y128400D01*
X214798D01*
X213798Y129400D01*
X219796Y133398D02*
X220796Y134398D01*
X222795D01*
X223795Y133398D01*
Y132399D01*
X222795Y131399D01*
X223795Y130399D01*
Y129400D01*
X222795Y128400D01*
X220796D01*
X219796Y129400D01*
Y130399D01*
X220796Y131399D01*
X219796Y132399D01*
Y133398D01*
X220796Y131399D02*
X222795D01*
X93300Y147400D02*
Y153398D01*
X96299D01*
X97299Y152398D01*
Y150399D01*
X96299Y149399D01*
X93300D01*
X95299D02*
X97299Y147400D01*
X99298Y152398D02*
X100298Y153398D01*
X102297D01*
X103297Y152398D01*
Y151399D01*
X102297Y150399D01*
X101297D01*
X102297D01*
X103297Y149399D01*
Y148400D01*
X102297Y147400D01*
X100298D01*
X99298Y148400D01*
X105296Y153398D02*
X109295D01*
Y152398D01*
X105296Y148400D01*
Y147400D01*
X207800Y32900D02*
Y38898D01*
X210799D01*
X211799Y37898D01*
Y35899D01*
X210799Y34899D01*
X207800D01*
X209799D02*
X211799Y32900D01*
X213798Y37898D02*
X214798Y38898D01*
X216797D01*
X217797Y37898D01*
Y36899D01*
X216797Y35899D01*
X215797D01*
X216797D01*
X217797Y34899D01*
Y33900D01*
X216797Y32900D01*
X214798D01*
X213798Y33900D01*
X223795Y38898D02*
X221796Y37898D01*
X219796Y35899D01*
Y33900D01*
X220796Y32900D01*
X222795D01*
X223795Y33900D01*
Y34899D01*
X222795Y35899D01*
X219796D01*
X207800Y52000D02*
Y57998D01*
X210799D01*
X211799Y56998D01*
Y54999D01*
X210799Y53999D01*
X207800D01*
X209799D02*
X211799Y52000D01*
X213798Y56998D02*
X214798Y57998D01*
X216797D01*
X217797Y56998D01*
Y55999D01*
X216797Y54999D01*
X215797D01*
X216797D01*
X217797Y53999D01*
Y53000D01*
X216797Y52000D01*
X214798D01*
X213798Y53000D01*
X223795Y57998D02*
X219796D01*
Y54999D01*
X221796Y55999D01*
X222795D01*
X223795Y54999D01*
Y53000D01*
X222795Y52000D01*
X220796D01*
X219796Y53000D01*
X207800Y71100D02*
Y77098D01*
X210799D01*
X211799Y76098D01*
Y74099D01*
X210799Y73099D01*
X207800D01*
X209799D02*
X211799Y71100D01*
X213798Y76098D02*
X214798Y77098D01*
X216797D01*
X217797Y76098D01*
Y75099D01*
X216797Y74099D01*
X215797D01*
X216797D01*
X217797Y73099D01*
Y72100D01*
X216797Y71100D01*
X214798D01*
X213798Y72100D01*
X222795Y71100D02*
Y77098D01*
X219796Y74099D01*
X223795D01*
X207800Y90200D02*
Y96198D01*
X210799D01*
X211799Y95198D01*
Y93199D01*
X210799Y92199D01*
X207800D01*
X209799D02*
X211799Y90200D01*
X213798Y95198D02*
X214798Y96198D01*
X216797D01*
X217797Y95198D01*
Y94199D01*
X216797Y93199D01*
X215797D01*
X216797D01*
X217797Y92199D01*
Y91200D01*
X216797Y90200D01*
X214798D01*
X213798Y91200D01*
X219796Y95198D02*
X220796Y96198D01*
X222795D01*
X223795Y95198D01*
Y94199D01*
X222795Y93199D01*
X221796D01*
X222795D01*
X223795Y92199D01*
Y91200D01*
X222795Y90200D01*
X220796D01*
X219796Y91200D01*
X92800Y20600D02*
Y26598D01*
X95799D01*
X96799Y25598D01*
Y23599D01*
X95799Y22599D01*
X92800D01*
X94799D02*
X96799Y20600D01*
X98798Y25598D02*
X99798Y26598D01*
X101797D01*
X102797Y25598D01*
Y24599D01*
X101797Y23599D01*
X100797D01*
X101797D01*
X102797Y22599D01*
Y21600D01*
X101797Y20600D01*
X99798D01*
X98798Y21600D01*
X108795Y20600D02*
X104796D01*
X108795Y24599D01*
Y25598D01*
X107795Y26598D01*
X105796D01*
X104796Y25598D01*
X92800Y38700D02*
Y44698D01*
X95799D01*
X96799Y43698D01*
Y41699D01*
X95799Y40699D01*
X92800D01*
X94799D02*
X96799Y38700D01*
X98798Y43698D02*
X99798Y44698D01*
X101797D01*
X102797Y43698D01*
Y42699D01*
X101797Y41699D01*
X100797D01*
X101797D01*
X102797Y40699D01*
Y39700D01*
X101797Y38700D01*
X99798D01*
X98798Y39700D01*
X104796Y38700D02*
X106796D01*
X105796D01*
Y44698D01*
X104796Y43698D01*
X92800Y56800D02*
Y62798D01*
X95799D01*
X96799Y61798D01*
Y59799D01*
X95799Y58799D01*
X92800D01*
X94799D02*
X96799Y56800D01*
X98798Y61798D02*
X99798Y62798D01*
X101797D01*
X102797Y61798D01*
Y60799D01*
X101797Y59799D01*
X100797D01*
X101797D01*
X102797Y58799D01*
Y57800D01*
X101797Y56800D01*
X99798D01*
X98798Y57800D01*
X104796Y61798D02*
X105796Y62798D01*
X107795D01*
X108795Y61798D01*
Y57800D01*
X107795Y56800D01*
X105796D01*
X104796Y57800D01*
Y61798D01*
X92800Y74900D02*
Y80898D01*
X95799D01*
X96799Y79898D01*
Y77899D01*
X95799Y76899D01*
X92800D01*
X94799D02*
X96799Y74900D01*
X102797D02*
X98798D01*
X102797Y78899D01*
Y79898D01*
X101797Y80898D01*
X99798D01*
X98798Y79898D01*
X104796Y75900D02*
X105796Y74900D01*
X107795D01*
X108795Y75900D01*
Y79898D01*
X107795Y80898D01*
X105796D01*
X104796Y79898D01*
Y78899D01*
X105796Y77899D01*
X108795D01*
X92800Y93100D02*
Y99098D01*
X95799D01*
X96799Y98098D01*
Y96099D01*
X95799Y95099D01*
X92800D01*
X94799D02*
X96799Y93100D01*
X98798D02*
X100797D01*
X99798D01*
Y99098D01*
X98798Y98098D01*
X106796Y93100D02*
Y99098D01*
X103796Y96099D01*
X107795D01*
X92800Y111200D02*
Y117198D01*
X95799D01*
X96799Y116198D01*
Y114199D01*
X95799Y113199D01*
X92800D01*
X94799D02*
X96799Y111200D01*
X98798D02*
X100797D01*
X99798D01*
Y117198D01*
X98798Y116198D01*
X103796D02*
X104796Y117198D01*
X106796D01*
X107795Y116198D01*
Y115199D01*
X106796Y114199D01*
X105796D01*
X106796D01*
X107795Y113199D01*
Y112200D01*
X106796Y111200D01*
X104796D01*
X103796Y112200D01*
X198600Y262200D02*
Y268198D01*
X201599D01*
X202599Y267198D01*
Y265199D01*
X201599Y264199D01*
X198600D01*
X200599D02*
X202599Y262200D01*
X204598D02*
X206597D01*
X205598D01*
Y268198D01*
X204598Y267198D01*
X213595Y262200D02*
X209596D01*
X213595Y266199D01*
Y267198D01*
X212596Y268198D01*
X210596D01*
X209596Y267198D01*
X164100Y262200D02*
Y268198D01*
X167099D01*
X168099Y267198D01*
Y265199D01*
X167099Y264199D01*
X164100D01*
X166099D02*
X168099Y262200D01*
X170098D02*
X172097D01*
X171098D01*
Y268198D01*
X170098Y267198D01*
X175096Y262200D02*
X177096D01*
X176096D01*
Y268198D01*
X175096Y267198D01*
X129500Y262200D02*
Y268198D01*
X132499D01*
X133499Y267198D01*
Y265199D01*
X132499Y264199D01*
X129500D01*
X131499D02*
X133499Y262200D01*
X135498D02*
X137497D01*
X136498D01*
Y268198D01*
X135498Y267198D01*
X140496D02*
X141496Y268198D01*
X143496D01*
X144495Y267198D01*
Y263200D01*
X143496Y262200D01*
X141496D01*
X140496Y263200D01*
Y267198D01*
X95000Y262200D02*
Y268198D01*
X97999D01*
X98999Y267198D01*
Y265199D01*
X97999Y264199D01*
X95000D01*
X96999D02*
X98999Y262200D01*
X100998Y263200D02*
X101998Y262200D01*
X103997D01*
X104997Y263200D01*
Y267198D01*
X103997Y268198D01*
X101998D01*
X100998Y267198D01*
Y266199D01*
X101998Y265199D01*
X104997D01*
X60400Y262200D02*
Y268198D01*
X63399D01*
X64399Y267198D01*
Y265199D01*
X63399Y264199D01*
X60400D01*
X62399D02*
X64399Y262200D01*
X66398Y267198D02*
X67398Y268198D01*
X69397D01*
X70397Y267198D01*
Y266199D01*
X69397Y265199D01*
X70397Y264199D01*
Y263200D01*
X69397Y262200D01*
X67398D01*
X66398Y263200D01*
Y264199D01*
X67398Y265199D01*
X66398Y266199D01*
Y267198D01*
X67398Y265199D02*
X69397D01*
X25900Y262200D02*
Y268198D01*
X28899D01*
X29899Y267198D01*
Y265199D01*
X28899Y264199D01*
X25900D01*
X27899D02*
X29899Y262200D01*
X31898Y268198D02*
X35897D01*
Y267198D01*
X31898Y263200D01*
Y262200D01*
X181300D02*
Y268198D01*
X184299D01*
X185299Y267198D01*
Y265199D01*
X184299Y264199D01*
X181300D01*
X183299D02*
X185299Y262200D01*
X191297Y268198D02*
X189297Y267198D01*
X187298Y265199D01*
Y263200D01*
X188298Y262200D01*
X190297D01*
X191297Y263200D01*
Y264199D01*
X190297Y265199D01*
X187298D01*
X146800Y262200D02*
Y268198D01*
X149799D01*
X150799Y267198D01*
Y265199D01*
X149799Y264199D01*
X146800D01*
X148799D02*
X150799Y262200D01*
X156797Y268198D02*
X152798D01*
Y265199D01*
X154797Y266199D01*
X155797D01*
X156797Y265199D01*
Y263200D01*
X155797Y262200D01*
X153798D01*
X152798Y263200D01*
X112200Y262200D02*
Y268198D01*
X115199D01*
X116199Y267198D01*
Y265199D01*
X115199Y264199D01*
X112200D01*
X114199D02*
X116199Y262200D01*
X121197D02*
Y268198D01*
X118198Y265199D01*
X122197D01*
X77700Y262200D02*
Y268198D01*
X80699D01*
X81699Y267198D01*
Y265199D01*
X80699Y264199D01*
X77700D01*
X79699D02*
X81699Y262200D01*
X83698Y267198D02*
X84698Y268198D01*
X86697D01*
X87697Y267198D01*
Y266199D01*
X86697Y265199D01*
X85697D01*
X86697D01*
X87697Y264199D01*
Y263200D01*
X86697Y262200D01*
X84698D01*
X83698Y263200D01*
X43200Y262200D02*
Y268198D01*
X46199D01*
X47199Y267198D01*
Y265199D01*
X46199Y264199D01*
X43200D01*
X45199D02*
X47199Y262200D01*
X53197D02*
X49198D01*
X53197Y266199D01*
Y267198D01*
X52197Y268198D01*
X50198D01*
X49198Y267198D01*
X8600Y262200D02*
Y268198D01*
X11599D01*
X12599Y267198D01*
Y265199D01*
X11599Y264199D01*
X8600D01*
X10599D02*
X12599Y262200D01*
X14598D02*
X16597D01*
X15598D01*
Y268198D01*
X14598Y267198D01*
X8100Y199400D02*
Y205398D01*
X11099D01*
X12099Y204398D01*
Y202399D01*
X11099Y201399D01*
X8100D01*
X14098Y199400D02*
X16097D01*
X15098D01*
Y205398D01*
X14098Y204398D01*
X91599Y216198D02*
X90599Y217198D01*
X88600D01*
X87600Y216198D01*
Y212200D01*
X88600Y211200D01*
X90599D01*
X91599Y212200D01*
X93598Y216198D02*
X94598Y217198D01*
X96597D01*
X97597Y216198D01*
Y215199D01*
X96597Y214199D01*
X95597D01*
X96597D01*
X97597Y213199D01*
Y212200D01*
X96597Y211200D01*
X94598D01*
X93598Y212200D01*
X67099Y216198D02*
X66099Y217198D01*
X64100D01*
X63100Y216198D01*
Y212200D01*
X64100Y211200D01*
X66099D01*
X67099Y212200D01*
X73097Y211200D02*
X69098D01*
X73097Y215199D01*
Y216198D01*
X72097Y217198D01*
X70098D01*
X69098Y216198D01*
X116099D02*
X115099Y217198D01*
X113100D01*
X112100Y216198D01*
Y212200D01*
X113100Y211200D01*
X115099D01*
X116099Y212200D01*
X118098Y211200D02*
X120097D01*
X119098D01*
Y217198D01*
X118098Y216198D01*
M02*
