G04*
G04 #@! TF.GenerationSoftware,Altium Limited,Altium Designer,22.1.2 (22)*
G04*
G04 Layer_Physical_Order=1*
G04 Layer_Color=255*
%FSLAX25Y25*%
%MOIN*%
G70*
G04*
G04 #@! TF.SameCoordinates,8F418984-8156-4F93-B3CA-C30CAEC08A5D*
G04*
G04*
G04 #@! TF.FilePolarity,Positive*
G04*
G01*
G75*
%ADD22C,0.03000*%
%ADD23R,0.06000X0.06000*%
%ADD24C,0.06000*%
%ADD25C,0.09449*%
%ADD26R,0.06000X0.06000*%
%ADD27R,0.05500X0.05500*%
%ADD28R,0.05500X0.05500*%
%ADD29C,0.04000*%
D22*
X341745Y192510D02*
X341995Y192760D01*
X306220Y116537D02*
Y138720D01*
X347645Y180145D01*
Y187845D01*
X341745Y185505D02*
Y192510D01*
X341500Y193255D02*
X341995Y192760D01*
X341500Y193255D02*
Y204500D01*
X239000Y182500D02*
X255457Y198957D01*
X237240Y267000D02*
X255457Y248783D01*
X249366Y210871D02*
X249557Y210679D01*
X243370Y210871D02*
X249366D01*
X255457Y198957D02*
Y248783D01*
X260457Y138043D02*
X268000Y130500D01*
X237240Y217000D02*
X243370Y210871D01*
X260457Y138043D02*
Y253783D01*
X237240Y277000D02*
X260457Y253783D01*
X373000Y259000D02*
X379500Y265500D01*
X395692D01*
X390692Y247500D02*
X399500Y256308D01*
Y261692D01*
X381500Y247500D02*
X390692D01*
X373000Y239000D02*
X381500Y247500D01*
X354417Y252500D02*
X386500D01*
X331500Y229583D02*
X354417Y252500D01*
X386500D02*
X393000Y259000D01*
X395692Y265500D02*
X399500Y261692D01*
X373000Y216000D02*
Y239000D01*
Y196000D02*
Y216000D01*
X347488Y188003D02*
X347645Y187845D01*
X347488Y190488D02*
X353000Y196000D01*
X347488Y188003D02*
Y190488D01*
X324500Y184667D02*
X331500Y177667D01*
X329153Y218778D02*
X333702Y223327D01*
X328808Y218778D02*
X329153D01*
X324500Y184667D02*
Y214470D01*
X328808Y218778D01*
X346547Y217547D02*
Y220047D01*
X331500Y202500D02*
X346547Y217547D01*
X331500Y194972D02*
Y202500D01*
X362426Y235926D02*
Y238426D01*
X363000Y239000D01*
X346547Y220047D02*
X362426Y235926D01*
X316370Y61500D02*
X341000Y36870D01*
X246500Y75000D02*
X260000Y61500D01*
X316370D01*
X268000Y121237D02*
X286237Y103000D01*
X317692D01*
X324500Y96192D01*
X330808Y89500D02*
X336192D01*
X324500Y95808D02*
Y96192D01*
Y95808D02*
X330808Y89500D01*
X357500Y34178D02*
Y70822D01*
X356724Y71598D02*
Y74276D01*
X336437Y89744D02*
X341256D01*
X352595Y30370D02*
X353692D01*
X356724Y71598D02*
X357500Y70822D01*
X353692Y30370D02*
X357500Y34178D01*
X341256Y89744D02*
X356724Y74276D01*
X150500Y3700D02*
X334093D01*
X336192Y89500D02*
X336437Y89744D01*
X338725Y16500D02*
X352595Y30370D01*
X377000Y46607D02*
Y97692D01*
X334093Y3700D02*
X377000Y46607D01*
X371847Y102500D02*
X372192D01*
X364847Y109500D02*
X371847Y102500D01*
X372192D02*
X377000Y97692D01*
X338263Y114500D02*
X338543Y114780D01*
X342692Y126000D02*
X351500D01*
X277153Y119500D02*
X287153Y109500D01*
X364847D01*
X308257Y114500D02*
X338263D01*
X338543Y114780D02*
X358280D01*
X330808Y119500D02*
X336192D01*
X342692Y126000D01*
X358280Y114780D02*
X369500Y126000D01*
X306220Y116537D02*
X308257Y114500D01*
X327000Y123308D02*
X330808Y119500D01*
X327000Y123308D02*
Y141189D01*
X363000Y177189D01*
X273000Y123308D02*
Y181000D01*
X268500Y185500D02*
X273000Y181000D01*
Y123308D02*
X276808Y119500D01*
X277153D01*
X268000Y121237D02*
Y130500D01*
X228000Y111000D02*
Y129500D01*
X216720Y196613D02*
Y196749D01*
X213000Y192894D02*
X216720Y196613D01*
X202000Y85000D02*
X228000Y111000D01*
X213000Y188692D02*
Y192894D01*
X220500Y227000D02*
X237240D01*
X210500Y217000D02*
X220500Y227000D01*
X363000Y177189D02*
Y196000D01*
X333500Y126000D02*
X383000Y175500D01*
Y196000D01*
X341500Y204500D02*
X353000Y216000D01*
X337327Y223327D02*
X353000Y239000D01*
X333702Y223327D02*
X337327D01*
X250500Y93500D02*
Y111500D01*
X240000Y122000D02*
X250500Y111500D01*
Y93500D02*
X263546Y80454D01*
X268676D02*
X281000Y68130D01*
X263546Y80454D02*
X268676D01*
X230002Y90300D02*
X242692D01*
X246500Y75000D02*
Y86492D01*
X223502Y83800D02*
X230002Y90300D01*
X242692D02*
X246500Y86492D01*
X203500Y130908D02*
X214500Y141908D01*
Y154000D01*
X50000Y7000D02*
X138000D01*
X144500Y9700D02*
Y36500D01*
Y9700D02*
X150500Y3700D01*
X115891Y106353D02*
X116500Y105744D01*
X115891Y106353D02*
Y113744D01*
X116500Y33000D02*
Y105744D01*
X193500Y149500D02*
X199250Y143750D01*
X205150Y141160D02*
Y147350D01*
X151550Y154500D02*
X198000D01*
X205150Y147350D01*
X206500Y155500D02*
X213000Y162000D01*
X206500Y182000D02*
X206672Y182172D01*
X206500Y170000D02*
Y182000D01*
X197080Y164580D02*
X201080D01*
X206500Y170000D01*
X19000Y217000D02*
X210500D01*
X186500Y180500D02*
X196000Y171000D01*
X204500Y16500D02*
X338725D01*
X193000Y160500D02*
X197080Y164580D01*
X199692Y202000D02*
X213000Y188692D01*
Y162000D02*
Y188692D01*
X186457Y137850D02*
X201840D01*
X205150Y141160D01*
X178308Y149500D02*
X193500D01*
X133000Y160500D02*
X193000D01*
X118000Y145500D02*
X133000Y160500D01*
X146260Y175260D02*
X166500Y195500D01*
X118000Y155500D02*
X137760Y175260D01*
X146260D01*
X125500Y141000D02*
X132500Y148000D01*
X145050D01*
X98192Y147500D02*
X111192Y134500D01*
X128192D02*
X136692Y143000D01*
X111192Y134500D02*
X128192D01*
X78295Y147500D02*
X98192D01*
X153000Y168500D02*
X184500D01*
X183000Y168000D02*
X185000D01*
X184500Y168500D02*
X185000Y168000D01*
X98451Y183500D02*
X110000D01*
X87838Y166974D02*
Y172887D01*
X98451Y183500D01*
X83500Y162500D02*
Y162635D01*
X87838Y166974D01*
X68102Y159266D02*
X81014Y172178D01*
Y186871D01*
X94500Y200356D01*
X32050Y162500D02*
X47000D01*
X18525Y148975D02*
X32050Y162500D01*
X18525Y148833D02*
Y148975D01*
X5000Y112000D02*
Y135308D01*
Y112000D02*
X11500Y105500D01*
X5000Y135308D02*
X18525Y148833D01*
X203500Y117452D02*
Y130908D01*
X210000Y102900D02*
Y110952D01*
X203500Y117452D02*
X210000Y110952D01*
X168500Y180500D02*
X186500D01*
X127951Y188500D02*
X136500D01*
X106500Y159500D02*
Y167049D01*
X127951Y188500D01*
X48500Y129500D02*
X71500D01*
X79500Y137500D01*
X47500Y112000D02*
X53500Y106000D01*
Y49158D02*
Y106000D01*
Y49158D02*
X69842Y32815D01*
X68000Y112000D02*
X80202Y99798D01*
X27050Y121500D02*
X76000D01*
X20550Y128000D02*
X27050Y121500D01*
X76000D02*
X95500Y141000D01*
X80202Y37933D02*
Y99798D01*
X144500Y36500D02*
X151000Y43000D01*
X92308Y25826D02*
X127692D01*
X139058Y37192D01*
Y41058D01*
X151000Y53000D01*
X80202Y37933D02*
X92308Y25826D01*
X130000Y41500D02*
Y41635D01*
X151000Y62635D02*
Y63000D01*
X130000Y41635D02*
X151000Y62635D01*
X153808Y202000D02*
X199692D01*
X152164Y200356D02*
X153808Y202000D01*
X119000Y200356D02*
X152164D01*
X70795Y140000D02*
X78295Y147500D01*
X42500Y140000D02*
X70795D01*
X31500Y151000D02*
X42500Y140000D01*
X145050Y148000D02*
X151550Y154500D01*
X136692Y143000D02*
X151000D01*
X11500Y128000D02*
X20550D01*
X66356Y206856D02*
X112500D01*
X119000Y200356D01*
X40500Y181000D02*
X66356Y206856D01*
X68102Y146500D02*
Y159266D01*
X55898Y186254D02*
X70000Y200356D01*
X55898Y146500D02*
Y186254D01*
X181000Y143000D02*
X181307D01*
X186457Y137850D01*
X6000Y171381D02*
X11500Y165881D01*
X6000Y171381D02*
Y185450D01*
X11926Y190426D02*
X12500Y191000D01*
X11500Y151000D02*
Y165881D01*
X6000Y185450D02*
X10976Y190426D01*
X11926D01*
X11000Y193312D02*
X12500Y191812D01*
Y191000D02*
Y191812D01*
X11000Y193312D02*
Y226000D01*
X20421Y181000D02*
X40500Y201079D01*
X12500Y181000D02*
X20421D01*
X164942Y136134D02*
X178308Y149500D01*
X181000Y83000D02*
X186700Y77300D01*
X224073D01*
X151000Y93000D02*
X164942Y106942D01*
Y136134D01*
X240000Y45600D02*
Y64700D01*
Y83800D01*
X224073Y77300D02*
X230573Y83800D01*
X240000D01*
X210000D02*
X223502D01*
D23*
X353000Y196000D02*
D03*
X60000Y22972D02*
D03*
X353000Y239000D02*
D03*
X40500Y201079D02*
D03*
X12500Y181000D02*
D03*
D24*
X363000Y196000D02*
D03*
X373000D02*
D03*
X383000D02*
D03*
X393000D02*
D03*
X353000Y216000D02*
D03*
X363000D02*
D03*
X373000D02*
D03*
X383000D02*
D03*
X393000D02*
D03*
X60000Y82028D02*
D03*
X69842Y32815D02*
D03*
Y72185D02*
D03*
X60000Y52500D02*
D03*
X20630Y42658D02*
D03*
Y62343D02*
D03*
X151000Y133000D02*
D03*
Y123000D02*
D03*
Y113000D02*
D03*
Y103000D02*
D03*
Y93000D02*
D03*
Y83000D02*
D03*
Y73000D02*
D03*
Y63000D02*
D03*
Y53000D02*
D03*
Y43000D02*
D03*
Y33000D02*
D03*
Y23000D02*
D03*
Y13000D02*
D03*
X181000Y143000D02*
D03*
Y133000D02*
D03*
Y123000D02*
D03*
Y113000D02*
D03*
Y103000D02*
D03*
Y93000D02*
D03*
Y83000D02*
D03*
Y73000D02*
D03*
Y63000D02*
D03*
Y53000D02*
D03*
Y43000D02*
D03*
Y33000D02*
D03*
Y23000D02*
D03*
Y13000D02*
D03*
X281000Y68130D02*
D03*
X291000D02*
D03*
X301000D02*
D03*
X311000D02*
D03*
X321000D02*
D03*
X331000D02*
D03*
X341000D02*
D03*
X351000D02*
D03*
Y36870D02*
D03*
X341000D02*
D03*
X331000D02*
D03*
X321000D02*
D03*
X311000D02*
D03*
X301000D02*
D03*
X291000D02*
D03*
X237240Y267000D02*
D03*
Y257000D02*
D03*
Y247000D02*
D03*
Y237000D02*
D03*
Y227000D02*
D03*
Y217000D02*
D03*
Y207000D02*
D03*
X268500D02*
D03*
Y217000D02*
D03*
Y227000D02*
D03*
Y237000D02*
D03*
Y247000D02*
D03*
Y257000D02*
D03*
Y267000D02*
D03*
Y277000D02*
D03*
X393000Y259000D02*
D03*
X383000D02*
D03*
X373000D02*
D03*
X363000D02*
D03*
X353000D02*
D03*
X393000Y239000D02*
D03*
X383000D02*
D03*
X373000D02*
D03*
X363000D02*
D03*
X331500Y246889D02*
D03*
X301500D02*
D03*
X331500Y229583D02*
D03*
X301500D02*
D03*
X331500Y212278D02*
D03*
X301500D02*
D03*
X331500Y194972D02*
D03*
X301500D02*
D03*
X331500Y177667D02*
D03*
X301500D02*
D03*
X331500Y281500D02*
D03*
X301500D02*
D03*
X331500Y264194D02*
D03*
X301500D02*
D03*
X297500Y126000D02*
D03*
Y96000D02*
D03*
X315500Y126000D02*
D03*
Y96000D02*
D03*
X333500Y126000D02*
D03*
Y96000D02*
D03*
X351500Y126000D02*
D03*
Y96000D02*
D03*
X369500Y126000D02*
D03*
Y96000D02*
D03*
X261500Y126000D02*
D03*
Y96000D02*
D03*
X279500Y126000D02*
D03*
Y96000D02*
D03*
X15000Y278000D02*
D03*
X50600D02*
D03*
X86200D02*
D03*
X121800D02*
D03*
X157400D02*
D03*
X193000D02*
D03*
X95000Y14214D02*
D03*
X125000D02*
D03*
X197000Y195500D02*
D03*
X187000D02*
D03*
X166500D02*
D03*
X156500D02*
D03*
X240000Y45600D02*
D03*
X210000D02*
D03*
X240000Y64700D02*
D03*
X210000D02*
D03*
X240000Y83800D02*
D03*
X210000D02*
D03*
X95000Y32326D02*
D03*
X125000D02*
D03*
X95000Y50439D02*
D03*
X125000D02*
D03*
X95000Y68551D02*
D03*
X125000D02*
D03*
X240000Y26500D02*
D03*
X210000D02*
D03*
X11500Y151000D02*
D03*
Y105500D02*
D03*
Y128000D02*
D03*
X40500Y181000D02*
D03*
Y191039D02*
D03*
X183727Y256000D02*
D03*
Y226000D02*
D03*
X149182Y256000D02*
D03*
Y226000D02*
D03*
X114636Y256000D02*
D03*
Y226000D02*
D03*
X80091Y256000D02*
D03*
Y226000D02*
D03*
X45545Y256000D02*
D03*
Y226000D02*
D03*
X11000Y256000D02*
D03*
Y226000D02*
D03*
X240000Y122000D02*
D03*
X210000D02*
D03*
X28273Y256000D02*
D03*
Y226000D02*
D03*
X62818Y256000D02*
D03*
Y226000D02*
D03*
X97364Y256000D02*
D03*
Y226000D02*
D03*
X131909Y256000D02*
D03*
Y226000D02*
D03*
X119000Y200356D02*
D03*
Y170356D02*
D03*
X166455Y256000D02*
D03*
Y226000D02*
D03*
X201000Y256000D02*
D03*
Y226000D02*
D03*
X125000Y122888D02*
D03*
X95000D02*
D03*
X125000Y104776D02*
D03*
X95000D02*
D03*
X210000Y102900D02*
D03*
X240000D02*
D03*
X125000Y86663D02*
D03*
X95000D02*
D03*
X12500Y191000D02*
D03*
X55898Y146500D02*
D03*
X68102D02*
D03*
X94500Y170356D02*
D03*
Y200356D02*
D03*
X70000D02*
D03*
Y170356D02*
D03*
X95500Y141000D02*
D03*
X125500D02*
D03*
D25*
X40315Y82028D02*
D03*
Y22972D02*
D03*
D26*
X151000Y143000D02*
D03*
X60600Y278000D02*
D03*
X96200D02*
D03*
X131800D02*
D03*
X167400D02*
D03*
X203000D02*
D03*
X25000D02*
D03*
X31500Y151000D02*
D03*
Y105500D02*
D03*
Y128000D02*
D03*
D27*
X281000Y36870D02*
D03*
D28*
X237240Y277000D02*
D03*
D29*
X341745Y185505D02*
D03*
X249557Y210679D02*
D03*
X268500Y185500D02*
D03*
X239000Y182500D02*
D03*
X228000Y129500D02*
D03*
X216720Y196749D02*
D03*
X214500Y154000D02*
D03*
X138000Y7000D02*
D03*
X115891Y113744D02*
D03*
X199250Y143750D02*
D03*
X206500Y155500D02*
D03*
X206672Y182172D02*
D03*
X50000Y7000D02*
D03*
X19000Y217000D02*
D03*
X196000Y171000D02*
D03*
X118000Y145500D02*
D03*
X116500Y33000D02*
D03*
X202000Y85000D02*
D03*
X183000Y168000D02*
D03*
X153000Y168500D02*
D03*
X110000Y183500D02*
D03*
X83500Y162500D02*
D03*
X47000D02*
D03*
X168500Y180500D02*
D03*
X136500Y188500D02*
D03*
X106500Y159500D02*
D03*
X79500Y137500D02*
D03*
X48500Y129500D02*
D03*
X47500Y112000D02*
D03*
X68000D02*
D03*
X130000Y41500D02*
D03*
X118000Y155500D02*
D03*
X204500Y16500D02*
D03*
M02*
